<svg width="320" height="19" fill="none" xmlns="http://www.w3.org/2000/svg"><g clip-path="url(#clip0_2_286)"><path fill-rule="evenodd" clip-rule="evenodd" d="M24.373 3c.064 0 .117.052.117.117v.122a.117.117 0 01-.117.117h-.134v.395a7.625 7.625 0 017.386 7.622 7.626 7.626 0 11-15.25 0 7.626 7.626 0 017.386-7.622v-.395h-.134a.117.117 0 01-.117-.117v-.122c0-.065.052-.117.117-.117h.746zm-.182 1.75v.67a.191.191 0 01-.382 0v-.67a6.624 6.624 0 00-6.43 6.432h.669a.191.191 0 110 .382h-.67a6.625 6.625 0 006.43 6.432v-.67a.191.191 0 11.383 0v.67a6.624 6.624 0 006.43-6.432h-.669a.191.191 0 010-.382h.67a6.623 6.623 0 00-6.43-6.431zM24 11.018a.356.356 0 01.35.415l2.266 2.05c.058.053.1.12.121.196l.03.111a.077.077 0 01-.086.096l-.114-.019a.412.412 0 01-.207-.1l-2.266-2.05a.356.356 0 11-.094-.699z" fill="#fff"/></g><path d="M38.456 4.32v-.996h2.256V12h-1.104V4.32h-1.152zM46.848.696L43.56 14.04h-1.08L45.756.696h1.092zm1.183 9.372V9.24l4.212-5.832h1.308V9.12h1.2v.948h-1.2V12h-1.08v-1.932h-4.44zm4.488-5.52L49.29 9.12h3.228V4.548zm3.323 3.024c0-1.376.224-2.448.672-3.216.448-.776 1.232-1.164 2.352-1.164 1.112 0 1.892.388 2.34 1.164.448.768.672 1.84.672 3.216 0 1.4-.224 2.488-.672 3.264-.448.776-1.228 1.164-2.34 1.164-1.12 0-1.904-.388-2.352-1.164-.448-.776-.672-1.864-.672-3.264zm4.956 0c0-.696-.048-1.284-.144-1.764-.088-.488-.276-.88-.564-1.176-.28-.296-.688-.444-1.224-.444-.544 0-.96.148-1.248.444-.28.296-.468.688-.564 1.176-.088.48-.132 1.068-.132 1.764 0 .72.044 1.324.132 1.812.096.488.284.88.564 1.176.288.296.704.444 1.248.444.536 0 .944-.148 1.224-.444.288-.296.476-.688.564-1.176.096-.488.144-1.092.144-1.812zm2.579 0c0-1.376.224-2.448.672-3.216.448-.776 1.232-1.164 2.352-1.164 1.112 0 1.892.388 2.34 1.164.448.768.672 1.84.672 3.216 0 1.4-.224 2.488-.672 3.264-.448.776-1.228 1.164-2.34 1.164-1.12 0-1.904-.388-2.352-1.164-.448-.776-.672-1.864-.672-3.264zm4.956 0c0-.696-.048-1.284-.144-1.764-.088-.488-.276-.88-.564-1.176-.28-.296-.688-.444-1.224-.444-.544 0-.96.148-1.248.444-.28.296-.468.688-.564 1.176-.088.48-.132 1.068-.132 1.764 0 .72.044 1.324.132 1.812.096.488.284.88.564 1.176.288.296.704.444 1.248.444.536 0 .944-.148 1.224-.444.288-.296.476-.688.564-1.176.096-.488.144-1.092.144-1.812zm5.087 4.536c-.504 0-.956-.084-1.356-.252a2.356 2.356 0 01-.948-.72 1.946 1.946 0 01-.384-1.068h1.128c.032.328.184.596.456.804.28.208.644.312 1.092.312.416 0 .744-.092.984-.276.24-.184.36-.416.36-.696 0-.288-.128-.5-.384-.636-.256-.144-.652-.284-1.188-.42a9.777 9.777 0 01-1.2-.384 2.279 2.279 0 01-.792-.588c-.216-.264-.324-.608-.324-1.032 0-.336.1-.644.3-.924.2-.28.484-.5.852-.66a3.003 3.003 0 011.26-.252c.728 0 1.316.184 1.764.552.448.368.688.872.72 1.512h-1.092a1.12 1.12 0 00-.42-.828c-.248-.208-.584-.312-1.008-.312-.392 0-.704.084-.936.252a.779.779 0 00-.348.66c0 .216.068.396.204.54.144.136.32.248.528.336.216.08.512.172.888.276.472.128.856.256 1.152.384.296.12.548.304.756.552.216.248.328.572.336.972 0 .36-.1.684-.3.972-.2.288-.484.516-.852.684-.36.16-.776.24-1.248.24z" fill="#fff"/><g clip-path="url(#clip1_2_286)"><path fill-rule="evenodd" clip-rule="evenodd" d="M99.64 13.596l7.383 4.29A7.773 7.773 0 01103 19a7.6 7.6 0 01-3.36-.759v-4.645zM99.046 9.4v8.533c-2.224-1.232-3.763-3.532-4-6.21l4-2.323zM111 10.94v.071a7.91 7.91 0 01-3.408 6.519l-4-2.3L111 10.94zm-4.047-6.873c2.225 1.232 3.763 3.532 4 6.21l-4 2.323V4.067zm-8.545.403l4 2.299L95 11.036v-.024a7.922 7.922 0 013.408-6.542zM103 3a7.58 7.58 0 013.361.759V8.38l-7.384-4.29A7.986 7.986 0 01103 3z" fill="#fff"/></g><path d="M120.6 6.324h-1.38V12h-1.092V6.324h-.852v-.9h.852v-.468c0-.736.188-1.272.564-1.608.384-.344.996-.516 1.836-.516v.912c-.48 0-.82.096-1.02.288-.192.184-.288.492-.288.924v.468h1.38v.9zm5.353-5.628l-3.288 13.344h-1.08L124.861.696h1.092zm1.423 4.812c.056-.736.34-1.312.852-1.728.512-.416 1.176-.624 1.992-.624.544 0 1.012.1 1.404.3.4.192.7.456.9.792.208.336.312.716.312 1.14 0 .496-.144.924-.432 1.284-.28.36-.648.592-1.104.696v.06c.52.128.932.38 1.236.756.304.376.456.868.456 1.476 0 .456-.104.868-.312 1.236-.208.36-.52.644-.936.852-.416.208-.916.312-1.5.312-.848 0-1.544-.22-2.088-.66-.544-.448-.848-1.08-.912-1.896h1.056c.056.48.252.872.588 1.176.336.304.784.456 1.344.456s.984-.144 1.272-.432c.296-.296.444-.676.444-1.14 0-.6-.2-1.032-.6-1.296-.4-.264-1.004-.396-1.812-.396h-.276V6.96h.288c.736-.008 1.292-.128 1.668-.36.376-.24.564-.608.564-1.104 0-.424-.14-.764-.42-1.02-.272-.256-.664-.384-1.176-.384-.496 0-.896.128-1.2.384-.304.256-.484.6-.54 1.032h-1.068zm8.399 4.98l-1.344 3.228h-.732l.876-3.228h1.2zm6.603-6.216h-4.212v2.736c.184-.256.456-.464.816-.624.36-.168.748-.252 1.164-.252.664 0 1.204.14 1.62.42.416.272.712.628.888 1.068.184.432.276.892.276 1.38 0 .576-.108 1.092-.324 1.548a2.449 2.449 0 01-.996 1.08c-.44.264-.988.396-1.644.396-.84 0-1.52-.216-2.04-.648-.52-.432-.836-1.008-.948-1.728h1.068c.104.456.324.812.66 1.068s.76.384 1.272.384c.632 0 1.108-.188 1.428-.564.32-.384.48-.888.48-1.512s-.16-1.104-.48-1.44c-.32-.344-.792-.516-1.416-.516-.424 0-.796.104-1.116.312-.312.2-.54.476-.684.828h-1.032V3.312h5.22v.96z" fill="#fff"/><g clip-path="url(#clip2_2_286)"><path fill-rule="evenodd" clip-rule="evenodd" d="M188.899 3C190.612 3 192 4.4 192 6.125v9.75c0 1.726-1.388 3.125-3.101 3.125h-25.798c-1.713 0-3.101-1.4-3.101-3.125v-9.75C160 4.399 161.388 3 163.101 3h25.798zM172.71 5.911c-.679 0-1.282.116-1.81.35-.528.232-.938.567-1.23 1.004-.292.437-.438.95-.438 1.539 0 .627.143 1.128.431 1.503.287.375.631.656 1.032.84.401.186.921.374 1.562.564.472.133.842.254 1.11.363.269.11.493.259.672.449.179.19.269.432.269.727 0 .36-.132.653-.396.876-.264.223-.627.335-1.089.335-.452 0-.808-.119-1.067-.356-.249-.228-.392-.535-.428-.92l-.004-.05h-2.121l.002.066c.02.58.184 1.086.493 1.516.321.447.757.789 1.308 1.026.552.238 1.171.357 1.859.357.726 0 1.353-.136 1.881-.406.528-.271.929-.635 1.202-1.09.273-.456.41-.95.41-1.482 0-.618-.146-1.117-.438-1.497a2.826 2.826 0 00-1.047-.855 11.43 11.43 0 00-1.569-.57 11.586 11.586 0 01-1.096-.377 1.99 1.99 0 01-.65-.428.9.9 0 01-.262-.662c0-.38.115-.67.346-.87.231-.2.54-.299.927-.299.443 0 .798.112 1.067.335.258.214.4.482.428.805l.003.043h2.178l-.005-.06c-.077-.865-.427-1.54-1.049-2.028-.636-.499-1.463-.748-2.481-.748zm10.684 0c-.924 0-1.772.219-2.545.655a4.87 4.87 0 00-1.838 1.817c-.452.775-.679 1.646-.679 2.615 0 .979.227 1.855.679 2.63a4.871 4.871 0 001.838 1.816 5.081 5.081 0 002.545.656c.924 0 1.772-.219 2.545-.656a4.818 4.818 0 001.831-1.817c.448-.774.672-1.65.672-2.629 0-.969-.224-1.84-.672-2.615a4.827 4.827 0 00-1.824-1.816 5.07 5.07 0 00-2.552-.656zm-16.632.143h-1.979V16h1.979V6.053zm16.632 1.652c.594 0 1.117.133 1.57.4.452.265.806.648 1.06 1.147.255.498.382 1.08.382 1.745s-.127 1.25-.382 1.753c-.254.504-.608.89-1.06 1.161-.453.271-.976.406-1.57.406-.594 0-1.119-.135-1.576-.406a2.76 2.76 0 01-1.068-1.161c-.254-.503-.382-1.088-.382-1.753 0-.665.128-1.247.382-1.745.255-.5.61-.882 1.068-1.148.457-.266.982-.399 1.576-.399z" fill="#fff"/></g><path d="M199.456 4.32v-.996h2.256V12h-1.104V4.32h-1.152zm4.132 3.252c0-1.376.224-2.448.672-3.216.448-.776 1.232-1.164 2.352-1.164 1.112 0 1.892.388 2.34 1.164.448.768.672 1.84.672 3.216 0 1.4-.224 2.488-.672 3.264-.448.776-1.228 1.164-2.34 1.164-1.12 0-1.904-.388-2.352-1.164-.448-.776-.672-1.864-.672-3.264zm4.956 0c0-.696-.048-1.284-.144-1.764-.088-.488-.276-.88-.564-1.176-.28-.296-.688-.444-1.224-.444-.544 0-.96.148-1.248.444-.28.296-.468.688-.564 1.176-.088.48-.132 1.068-.132 1.764 0 .72.044 1.324.132 1.812.096.488.284.88.564 1.176.288.296.704.444 1.248.444.536 0 .944-.148 1.224-.444.288-.296.476-.688.564-1.176.096-.488.144-1.092.144-1.812zm2.579 0c0-1.376.224-2.448.672-3.216.448-.776 1.232-1.164 2.352-1.164 1.112 0 1.892.388 2.34 1.164.448.768.672 1.84.672 3.216 0 1.4-.224 2.488-.672 3.264-.448.776-1.228 1.164-2.34 1.164-1.12 0-1.904-.388-2.352-1.164-.448-.776-.672-1.864-.672-3.264zm4.956 0c0-.696-.048-1.284-.144-1.764-.088-.488-.276-.88-.564-1.176-.28-.296-.688-.444-1.224-.444-.544 0-.96.148-1.248.444-.28.296-.468.688-.564 1.176-.088.48-.132 1.068-.132 1.764 0 .72.044 1.324.132 1.812.096.488.284.88.564 1.176.288.296.704.444 1.248.444.536 0 .944-.148 1.224-.444.288-.296.476-.688.564-1.176.096-.488.144-1.092.144-1.812z" fill="#fff"/><g clip-path="url(#clip3_2_286)"><path fill-rule="evenodd" clip-rule="evenodd" d="M240 9.445c-.962 0-1.74-.745-1.74-1.664 0-.918.778-1.662 1.74-1.662.96 0 1.738.744 1.738 1.662 0 .92-.778 1.664-1.738 1.664zM240 3c-2.761 0-5 2.14-5 4.78 0 1.928 2.659 7.691 4.099 10.67.354.733 1.445.733 1.802 0C242.339 15.47 245 9.708 245 7.78c0-2.64-2.239-4.78-5-4.78z" fill="#fff"/></g><path d="M250.516 7.812c0-.816.184-1.548.552-2.196a4.012 4.012 0 011.5-1.536 4.185 4.185 0 012.124-.552c.912 0 1.708.22 2.388.66.68.44 1.176 1.064 1.488 1.872h-1.308a2.614 2.614 0 00-1.008-1.164c-.432-.272-.952-.408-1.56-.408a3.05 3.05 0 00-1.572.408c-.464.272-.828.66-1.092 1.164-.264.496-.396 1.08-.396 1.752 0 .664.132 1.248.396 1.752.264.496.628.88 1.092 1.152a3.05 3.05 0 001.572.408c.608 0 1.128-.132 1.56-.396.44-.272.776-.66 1.008-1.164h1.308c-.312.8-.808 1.42-1.488 1.86-.68.432-1.476.648-2.388.648-.776 0-1.484-.18-2.124-.54a4.035 4.035 0 01-1.5-1.524c-.368-.648-.552-1.38-.552-2.196zm12.546 4.296a3.4 3.4 0 01-1.68-.42 3.053 3.053 0 01-1.176-1.188c-.28-.52-.42-1.12-.42-1.8 0-.672.144-1.264.432-1.776.296-.52.696-.916 1.2-1.188a3.424 3.424 0 011.692-.42c.624 0 1.188.14 1.692.42.504.272.9.664 1.188 1.176.296.512.444 1.108.444 1.788 0 .68-.152 1.28-.456 1.8a3.09 3.09 0 01-1.212 1.188c-.512.28-1.08.42-1.704.42zm0-.96c.392 0 .76-.092 1.104-.276.344-.184.62-.46.828-.828.216-.368.324-.816.324-1.344 0-.528-.104-.976-.312-1.344a2.003 2.003 0 00-.816-.816 2.237 2.237 0 00-1.092-.276c-.4 0-.768.092-1.104.276a1.951 1.951 0 00-.792.816c-.2.368-.3.816-.3 1.344 0 .536.096.988.288 1.356.2.368.464.644.792.828.328.176.688.264 1.08.264zm7.135.96c-.504 0-.956-.084-1.356-.252a2.356 2.356 0 01-.948-.72 1.946 1.946 0 01-.384-1.068h1.128c.032.328.184.596.456.804.28.208.644.312 1.092.312.416 0 .744-.092.984-.276.24-.184.36-.416.36-.696 0-.288-.128-.5-.384-.636-.256-.144-.652-.284-1.188-.42a9.777 9.777 0 01-1.2-.384 2.279 2.279 0 01-.792-.588c-.216-.264-.324-.608-.324-1.032 0-.336.1-.644.3-.924.2-.28.484-.5.852-.66a3.003 3.003 0 011.26-.252c.728 0 1.316.184 1.764.552.448.368.688.872.72 1.512h-1.092a1.12 1.12 0 00-.42-.828c-.248-.208-.584-.312-1.008-.312-.392 0-.704.084-.936.252a.779.779 0 00-.348.66c0 .216.068.396.204.54.144.136.32.248.528.336.216.08.512.172.888.276.472.128.856.256 1.152.384.296.12.548.304.756.552.216.248.328.572.336.972 0 .36-.1.684-.3.972-.2.288-.484.516-.852.684-.36.16-.776.24-1.248.24zm5.274-5.784V10.2c0 .32.068.548.204.684.136.128.372.192.708.192h.804V12h-.984c-.608 0-1.064-.14-1.368-.42-.304-.28-.456-.74-.456-1.38V6.324h-.852v-.9h.852V3.768h1.092v1.656h1.716v.9h-1.716zm2.631 2.364c0-.672.136-1.26.408-1.764a2.964 2.964 0 011.116-1.188 3.11 3.11 0 011.596-.42c.576 0 1.076.124 1.5.372.424.248.74.56.948.936v-1.2h1.104V12h-1.104v-1.224c-.216.384-.54.704-.972.96-.424.248-.92.372-1.488.372a2.98 2.98 0 01-1.584-.432 3.03 3.03 0 01-1.116-1.212c-.272-.52-.408-1.112-.408-1.776zm5.568.012c0-.496-.1-.928-.3-1.296a2.065 2.065 0 00-.816-.84 2.14 2.14 0 00-1.116-.3c-.408 0-.78.096-1.116.288a2.09 2.09 0 00-.804.84c-.2.368-.3.8-.3 1.296 0 .504.1.944.3 1.32.2.368.468.652.804.852a2.21 2.21 0 001.116.288c.408 0 .78-.096 1.116-.288.344-.2.616-.484.816-.852.2-.376.3-.812.3-1.308zm10.553 3.3l-1.992-3.42h-1.32V12h-1.092V3.636h2.7c.632 0 1.164.108 1.596.324.44.216.768.508.984.876.216.368.324.788.324 1.26 0 .576-.168 1.084-.504 1.524-.328.44-.824.732-1.488.876l2.1 3.504h-1.308zm-3.312-4.296h1.608c.592 0 1.036-.144 1.332-.432.296-.296.444-.688.444-1.176 0-.496-.148-.88-.444-1.152-.288-.272-.732-.408-1.332-.408h-1.608v3.168zm6.772-3.348a.718.718 0 01-.528-.216.718.718 0 01-.216-.528c0-.208.072-.384.216-.528a.718.718 0 01.528-.216c.2 0 .368.072.504.216.144.144.216.32.216.528a.718.718 0 01-.216.528.666.666 0 01-.504.216zm.528 1.068V12h-1.092V5.424h1.092zm1.453 3.276c0-.68.136-1.272.408-1.776a2.938 2.938 0 011.128-1.188c.488-.28 1.044-.42 1.668-.42.808 0 1.472.196 1.992.588.528.392.876.936 1.044 1.632h-1.176a1.679 1.679 0 00-.66-.948c-.32-.232-.72-.348-1.2-.348-.624 0-1.128.216-1.512.648-.384.424-.576 1.028-.576 1.812 0 .792.192 1.404.576 1.836.384.432.888.648 1.512.648.48 0 .88-.112 1.2-.336.32-.224.54-.544.66-.96h1.176a2.921 2.921 0 01-1.056 1.62c-.528.4-1.188.6-1.98.6-.624 0-1.18-.14-1.668-.42a2.938 2.938 0 01-1.128-1.188c-.272-.512-.408-1.112-.408-1.8zm7.29-.012c0-.672.136-1.26.408-1.764a2.964 2.964 0 011.116-1.188 3.11 3.11 0 011.596-.42c.576 0 1.076.124 1.5.372.424.248.74.56.948.936v-1.2h1.104V12h-1.104v-1.224c-.216.384-.54.704-.972.96-.424.248-.92.372-1.488.372a2.98 2.98 0 01-1.584-.432 3.03 3.03 0 01-1.116-1.212c-.272-.52-.408-1.112-.408-1.776zm5.568.012c0-.496-.1-.928-.3-1.296a2.065 2.065 0 00-.816-.84 2.14 2.14 0 00-1.116-.3c-.408 0-.78.096-1.116.288a2.09 2.09 0 00-.804.84c-.2.368-.3.8-.3 1.296 0 .504.1.944.3 1.32.2.368.468.652.804.852a2.21 2.21 0 001.116.288c.408 0 .78-.096 1.116-.288.344-.2.616-.484.816-.852.2-.376.3-.812.3-1.308z" fill="#fff"/><defs><clipPath id="clip0_2_286"><path fill="#fff" transform="translate(16 3)" d="M0 0h16v16H0z"/></clipPath><clipPath id="clip1_2_286"><path fill="#fff" transform="translate(95 3)" d="M0 0h16v16H0z"/></clipPath><clipPath id="clip2_2_286"><path fill="#fff" transform="translate(160 3)" d="M0 0h32v16H0z"/></clipPath><clipPath id="clip3_2_286"><path fill="#fff" transform="translate(235 3)" d="M0 0h10v16H0z"/></clipPath></defs></svg>